<?xml version="1.0" encoding="utf-8"?>
<!-- Generator: Adobe Illustrator 19.2.1, SVG Export Plug-In . SVG Version: 6.00 Build 0)  -->
<svg version="1.1" id="Layer_1" xmlns="http://www.w3.org/2000/svg" xmlns:xlink="http://www.w3.org/1999/xlink" x="0px" y="0px"
	 viewBox="0 0 200 130" style="enable-background:new 0 0 200 200;" xml:space="preserve">
<style type="text/css">
	.st0{fill:#404344;}
	.st1{fill:#37B34A;}
</style>
<g>
		<path id="path3801_1_"  class="st1" d="M99.8,17.9c-8.2,0-21.7,0.4-29.6,1.3C59.4,20.5,55.1,26.1,54,36.3c-0.9,7.8-1.5,19.1-1.5,29.7c0,10.6,0.2,22,1.5,29.7
		c1.7,10.2,6.5,15.5,16.3,17.1c7.8,1.3,22.1,1.3,29.6,1.3c7.4,0,21.8,0,29.6-1.3c9.8-1.6,14.5-6.9,16.3-17.1
		c1.4-7.8,1.5-19.7,1.5-29.7c0-10.1-0.9-23.5-1.5-29.7c-1.1-10.6-5.6-15.7-16.3-17.2C121.6,18.1,108.1,17.9,99.8,17.9z M133.1,28.8
		c2.1,0.9,5.8,6.3,4.9,12.3c-4.1,3.3-9,5.7-13.8,6.4v38h14.1c0,5.8-0.9,10.5-1.9,12.2h-25.9V48.1h-18v29.6
		c0,14.9-8.4,22.3-19.1,22.3c-3,0-6.6-0.4-9.7-1.3c-1.4-2-2.1-7.7-2.3-14.9c7.1,3.5,16.8,5.1,17.6-6.1V50
		c-10.9,1.2-14.9,8.8-18.6,13.9c0.1-6.8,0.4-12.9,0.8-17.1C68.7,38.7,77,35,93.4,35h23.4C122.5,35,128,32.9,133.1,28.8z"/>
</g>
</svg>
