<?xml version="1.0" standalone="no"?>
<!DOCTYPE svg PUBLIC "-//W3C//DTD SVG 1.0//EN" "http://www.w3.org/TR/2001/REC-SVG-20010904/DTD/svg10.dtd">
<svg xmlns="http://www.w3.org/2000/svg" xmlns:xlink="http://www.w3.org/1999/xlink" id="body_1" width="222" height="230">

<g transform="matrix(1.5 0 0 1.503268 0 0)">
	<g transform="matrix(1.49495 0 0 1.5 0 0)">
	</g>
    <path transform="matrix(1.49495 0 0 1.5 0 0)"  d="M-1 -1L100 -1L100 103L-1 103L-1 -1z" stroke="none" fill="none" />
	<g transform="matrix(1.49495 0 0 1.5 0 0)">
	</g>
    <path transform="matrix(1.49495 0 0 1.5 0 0)"  d="M8.518517 10.4321L89.75308 10.4321L89.75308 88.45679L8.518517 88.45679L8.518517 10.4321z" stroke="#000000" stroke-width="1.5" fill="#FFFFFF" fill-rule="nonzero" />
	<g transform="matrix(1.49495 0 0 1.5 0 0)">
	</g>
    <path transform="matrix(1.49495 0 0 1.5 0 0)"  d="M49.18272 1.35679C 40.98272 1.35679 27.48272 1.75679 19.58272 2.65679C 8.78272 3.95679 4.482719 9.556789 3.382719 19.75679C 2.482719 27.55679 1.882719 38.85679 1.882719 49.45679C 1.882719 60.05679 2.082719 71.45679 3.382719 79.15679C 5.082719 89.35679 9.882719 94.65679 19.68272 96.25679C 27.48272 97.55679 41.78272 97.55679 49.28272 97.55679C 56.68272 97.55679 71.08272 97.55679 78.88272 96.25679C 88.68272 94.65679 93.38272 89.35679 95.18272 79.15679C 96.58273 71.35679 96.68272 59.45679 96.68272 49.45679C 96.68272 39.35679 95.78272 25.95679 95.18272 19.75679C 94.08273 9.15679 89.58273 4.05679 78.88272 2.556789C 70.98272 1.556789 57.48272 1.356789 49.18272 1.356789L49.18272 1.356789L49.18272 1.35679zM82.48272 12.25679C 84.58272 13.15679 88.28272 18.55679 87.38272 24.55679C 83.28272 27.85679 78.38272 30.25679 73.58272 30.95679L73.58272 30.95679L73.58272 68.95679L87.68272 68.95679C 87.68272 74.75679 86.78271 79.45679 85.78271 81.15678L85.78271 81.15678L59.88271 81.15678L59.88271 31.55679L41.88271 31.55679L41.88271 61.15678C 41.88271 76.05679 33.48271 83.45679 22.78271 83.45679C 19.78271 83.45679 16.18271 83.05679 13.08271 82.15678C 11.68271 80.15678 10.98271 74.45679 10.78271 67.25678C 17.88271 70.75678 27.58271 72.35678 28.38271 61.15678L28.38271 61.15678L28.38271 33.45678C 17.48271 34.65678 13.48271 42.25678 9.782713 47.35678C 9.882713 40.55678 10.18271 34.45678 10.58271 30.25678C 18.08271 22.15678 26.38271 18.45678 42.78271 18.45678L42.78271 18.45678L66.18272 18.45678C 71.88271 18.45678 77.38271 16.35678 82.48271 12.25678z" stroke="none" fill="#37B34A" fill-rule="nonzero" />
</g>
</svg>