<svg width="99" height="99" xmlns="http://www.w3.org/2000/svg">
 <style type="text/css">.st0{fill:#404344;}
	.st1{fill:#37B34A;}</style>

 <g>
  <title>background</title>
  <rect fill="none" id="canvas_background" height="101" width="101" y="-1" x="-1"/>
 </g>
 <g>
  <title>Layer 1</title>
  <rect stroke="#000" id="svg_3" height="78.024692" width="81.234568" y="10.432098" x="8.518517" stroke-width="1.5" fill="#fff"/>
  <path d="m49.18272,1.35679c-8.2,0 -21.7,0.4 -29.6,1.3c-10.8,1.3 -15.1,6.9 -16.2,17.1c-0.9,7.8 -1.5,19.1 -1.5,29.7c0,10.6 0.2,22 1.5,29.7c1.7,10.2 6.5,15.5 16.3,17.1c7.8,1.3 22.1,1.3 29.6,1.3c7.4,0 21.8,0 29.6,-1.3c9.8,-1.6 14.5,-6.9 16.3,-17.1c1.4,-7.8 1.5,-19.7 1.5,-29.7c0,-10.1 -0.9,-23.5 -1.5,-29.7c-1.1,-10.6 -5.6,-15.7 -16.3,-17.2c-7.9,-1 -21.4,-1.2 -29.7,-1.2zm33.3,10.9c2.1,0.9 5.8,6.3 4.9,12.3c-4.1,3.3 -9,5.7 -13.8,6.4l0,38l14.1,0c0,5.8 -0.9,10.5 -1.9,12.2l-25.9,0l0,-49.6l-18,0l0,29.6c0,14.9 -8.4,22.3 -19.1,22.3c-3,0 -6.6,-0.4 -9.7,-1.3c-1.4,-2 -2.1,-7.7 -2.3,-14.9c7.1,3.5 16.8,5.1 17.6,-6.1l0,-27.7c-10.9,1.2 -14.9,8.8 -18.6,13.9c0.1,-6.8 0.4,-12.9 0.8,-17.1c7.5,-8.1 15.8,-11.8 32.2,-11.8l23.4,0c5.7,0 11.2,-2.1 16.3,-6.2z" class="st1" id="path3801_1_"/>
 </g>
</svg>